<svg width="175" height="92" viewBox="0 0 175 92" fill="none" xmlns="http://www.w3.org/2000/svg">
<g clip-path="url(#clip0_27074_462)">
<path d="M0.226863 85.3858H4.82342V86.6238H1.98581V87.9599H4.65794V89.2163H1.98581V90.724H4.92761V91.9987H0.226863V85.3797V85.3858ZM162.73 85.3858H167.774V86.7096H166.138V92.0049H164.373V86.7096H162.736V85.3858H162.73ZM147.752 85.3858H149.952L151.87 89.3511C151.938 89.4859 152.011 89.6698 152.097 89.9088C152.183 90.1479 152.281 90.4359 152.385 90.7791C152.33 90.4543 152.287 90.154 152.262 89.8782C152.238 89.6024 152.22 89.3572 152.22 89.1244V85.3736H153.813V91.9926H151.619L149.627 87.8802C149.535 87.6902 149.449 87.488 149.37 87.2612C149.296 87.0406 149.223 86.7954 149.155 86.538C149.217 86.9303 149.266 87.2919 149.29 87.6228C149.321 87.9538 149.333 88.2479 149.333 88.4992V91.9926H147.739V85.3736L147.752 85.3858ZM134.924 85.3858H139.521V86.6238H136.689V87.9599H139.361V89.2163H136.689V90.724H139.631V91.9987H134.93V85.3797L134.924 85.3858ZM118.959 85.3858H121.521L122.673 89.3634C122.722 89.5227 122.753 89.7004 122.783 89.8966C122.814 90.0927 122.832 90.3072 122.845 90.534C122.869 90.2888 122.894 90.062 122.924 89.8537C122.961 89.6453 122.992 89.4737 123.035 89.3266L124.187 85.3858H126.712V92.0049H125.131V87.5615C125.131 87.3531 125.131 87.1325 125.149 86.9058C125.161 86.679 125.18 86.44 125.204 86.1826C125.161 86.3787 125.118 86.5687 125.075 86.7525C125.033 86.9364 124.983 87.108 124.934 87.2673L123.519 92.0049H122.011L120.626 87.3409C120.577 87.1815 120.534 87.0038 120.491 86.8016C120.448 86.6054 120.405 86.3971 120.369 86.1764C120.393 86.489 120.405 86.7709 120.418 87.0222C120.43 87.2735 120.436 87.4573 120.436 87.586V91.9987H118.965V85.3797L118.959 85.3858ZM104.636 85.3858H106.836L108.755 89.3511C108.822 89.4859 108.896 89.6698 108.981 89.9088C109.067 90.1479 109.165 90.4359 109.269 90.7791C109.214 90.4543 109.171 90.154 109.147 89.8782C109.122 89.6024 109.104 89.3572 109.104 89.1244V85.3736H110.697V91.9926H108.503L106.511 87.8802C106.42 87.6902 106.334 87.488 106.254 87.2612C106.174 87.0406 106.107 86.7954 106.04 86.538C106.101 86.9303 106.144 87.298 106.174 87.6228C106.205 87.9538 106.217 88.2479 106.217 88.4992V91.9926H104.624V85.3736L104.636 85.3858ZM94.2907 85.3858H96.0558V92.0049H94.2907V85.3858ZM83.1671 86.8628L82.3091 89.345H83.9945L83.1671 86.8628ZM82.1375 85.3858H84.2641L86.7708 92.0049H84.8831L84.4112 90.6014H81.8617L81.3714 92.0049H79.6247L82.1375 85.3858ZM67.6675 85.3858H72.7114V86.7096H71.0751V92.0049H69.31V86.7096H67.6736V85.3858H67.6675ZM56.5193 86.5503V88.2479H57.1383C57.5183 88.2479 57.8064 88.1805 57.9963 88.0396C58.1863 87.8986 58.2844 87.6964 58.2844 87.4144C58.2844 87.1203 58.1802 86.8996 57.9657 86.7587C57.7512 86.6177 57.4202 86.5503 56.9606 86.5503H56.5193ZM54.791 85.3858H57.4202C58.2967 85.3858 58.9463 85.5268 59.3692 85.8148C59.7921 86.0968 60.0066 86.5319 60.0066 87.1141C60.0066 87.5431 59.8963 87.8925 59.6695 88.1744C59.4427 88.4502 59.124 88.6341 58.7012 88.7321C59.0505 88.8608 59.3263 89.2224 59.5408 89.8169L60.3314 92.0171H58.4928L57.9105 90.203C57.8186 89.915 57.6899 89.7127 57.5306 89.5963C57.3712 89.4859 57.1199 89.4308 56.7767 89.4308H56.5193V92.0171H54.791V85.3858ZM41.6571 85.3858H46.2537V86.6238H43.4222V87.9599H46.0943V89.2163H43.4222V90.724H46.364V91.9987H41.6571V85.3797V85.3858ZM28.3762 85.3858H33.4201V86.7096H31.7837V92.0049H30.0187V86.7096H28.3823V85.3858H28.3762ZM13.3546 85.3858H15.5548L17.4731 89.3511C17.5405 89.4859 17.6141 89.6698 17.6999 89.9088C17.7857 90.1479 17.8838 90.4359 17.9879 90.7791C17.9328 90.4543 17.8899 90.154 17.8654 89.8782C17.8409 89.6024 17.8225 89.3572 17.8225 89.1244V85.3736H19.4159V91.9926H17.2219L15.23 87.8802C15.1381 87.6902 15.0523 87.488 14.9726 87.2612C14.8991 87.0406 14.8255 86.7954 14.7581 86.538C14.8194 86.9303 14.8684 87.2919 14.8929 87.6228C14.9236 87.9538 14.9358 88.2479 14.9358 88.4992V91.9926H13.3424V85.3736L13.3546 85.3858Z" fill="#29ABE5"/>
<path d="M44.5254 65.1671C44.5254 65.1671 44.887 66.7484 45.7695 66.1539C46.6582 65.5594 47.0137 64.6646 47.9023 64.6646C48.791 64.6646 52.4805 63.972 53.363 64.6646C54.2456 65.3571 54.3375 64.7626 54.7788 64.7626C55.22 64.7626 56.5193 64.9955 56.5193 64.9955C57.6531 64.8791 57.4202 63.0772 56.6051 62.5502C55.4223 61.6247 53.8349 61.0302 52.6521 60.1048C52.5356 59.21 52.4131 58.3213 52.2966 57.4265C52.6214 56.9669 52.9463 56.5011 53.2711 56.0415V51.5797C53.0934 51.1814 52.9156 50.7891 52.7379 50.3908C52.6766 49.2692 52.6214 48.1415 52.5602 47.02C52.4131 46.8238 52.266 46.6216 52.1189 46.4255V45.1384C52.4131 44.7094 53.0137 44.2804 53.3079 43.8514C53.3937 43.024 53.0014 42.4418 53.0872 41.6144C52.8789 40.5541 52.8543 39.2548 52.646 38.2007V34.3335C53.504 34.076 53.7124 33.6961 53.7736 33.3161C53.8533 32.8197 53.6082 32.2374 53.3569 31.0668C53.2404 24.8891 53.1792 18.4662 53.0627 12.2884C53.5346 11.5529 54.0985 11.1668 54.1107 10.6214C54.123 10.1985 53.6633 9.84302 53.0934 9.35885V8.07182C53.0934 8.07182 54.0678 6.09223 54.8646 6.09223C55.6613 6.09223 56.1945 5.49775 56.1945 4.90326C56.9238 3.45688 55.3978 3.31591 55.3978 3.31591C53.7124 3.27914 51.8002 3.36494 50.1516 3.3343C48.6991 3.30366 47.5101 3.15044 46.0943 3.11979C45.4753 3.15044 44.8563 3.18721 44.2373 3.21785C42.7113 3.67751 43.0361 4.50489 43.6183 4.97067C44.3293 5.41807 44.9299 5.92676 45.745 5.94514C46.7379 5.96353 47.5285 6.28835 47.8717 7.28121C47.9575 11.2465 48.0494 15.2118 48.1352 19.1771C48.1659 22.1005 48.2578 25.0239 48.2823 27.9473C48.3129 30.8707 48.2823 33.7941 48.3129 36.7175C48.3742 40.1558 48.4294 43.5879 48.4907 47.0261C48.4907 47.0261 48.3129 48.3131 48.0494 48.6134C47.7859 48.9076 47.8717 51.4878 47.8717 51.4878C48.8523 52.3397 48.6439 52.2233 47.9575 53.3693C47.8962 55.9128 47.841 58.4562 47.7797 60.9996C47.5407 61.4593 47.3078 61.925 47.0688 62.3847C47.0688 62.3847 44.5193 63.8801 44.5193 65.1671H44.5254Z" fill="#29ABE5"/>
<path d="M29.608 54.0311C29.6325 52.1741 29.559 50.2191 29.5406 48.264C29.5284 46.4315 29.5774 44.6051 29.4303 42.8768C29.3077 42.0801 28.0452 42.0494 27.9104 41.2527C27.4875 38.7644 28.5784 36.1536 28.082 33.6776C27.892 32.7215 26.274 32.6296 25.9921 31.6919C25.6795 30.6439 26.7153 29.5529 26.1575 28.6275C25.5753 27.6592 22.7193 28.4743 22.9951 27.365C23.2587 26.2986 24.3863 25.4283 25.0237 24.4906C26.1208 22.8665 27.1381 21.3282 27.99 19.6796C28.6152 18.4783 29.0319 17.2158 29.0503 15.8246C29.0687 14.1576 28.6948 11.6999 28.511 9.53036C28.3578 7.75916 27.5059 6.71114 26.3108 5.43636C25.5692 4.63963 24.1473 4.73769 23.1728 4.2719C22.4619 3.92869 22.2106 2.56199 21.4323 2.48231C16.5783 2.00427 11.5589 2.48844 6.68654 2.70295C6.06141 2.72746 5.66917 3.09519 5.0563 3.2055C3.91022 3.40162 1.96128 2.86229 0.91327 3.38324C0.28201 3.6958 -0.20216 5.15444 0.0981477 5.81022C0.870369 7.50175 2.53739 8.30461 3.86732 9.57326C4.08183 9.78164 4.82341 9.42617 4.95824 9.69584C5.19113 10.18 5.13597 10.8113 4.95824 11.32C4.81728 11.7183 4.11247 11.798 4.08796 12.2209C4.21053 16.9768 4.03893 21.7633 3.93474 26.5192C3.89184 28.4804 4.49858 27.3527 4.92146 28.3272C5.17887 28.9339 5.11758 29.6817 4.92146 30.3129C4.40665 31.9861 4.27182 31.9738 4.32698 33.8186C4.36375 35.0627 4.21666 37.2629 4.70696 37.8267C5.05017 38.4151 4.72535 39.1506 4.72535 39.6286C4.72535 40.8421 4.57826 40.8972 4.19214 41.5898C4.19214 43.03 3.83668 54.4172 4.17989 57.8432C4.76212 60.0679 4.58438 66.6747 4.00828 71.6635C3.40154 72.8464 3.7141 74.2989 3.20542 74.924C2.91124 75.2917 2.40868 75.592 1.91225 75.8249C1.57517 75.9843 0.827468 75.972 0.545546 76.1988C0.0797615 76.5726 0.324911 77.21 1.63646 77.4797C3.83055 77.9271 7.34232 77.3755 9.14417 77.541C10.9215 77.7064 9.75091 78.0374 11.3199 76.7749C11.5773 76.5297 12.0982 76.5481 12.3679 76.7749C12.8275 77.1671 12.6437 77.6574 13.2382 77.7371C13.992 77.8352 14.0594 77.2345 14.7703 76.971C15.5426 76.6829 16.8602 77.0507 17.4854 76.4991C17.9757 76.4562 18.993 75.0956 20.5926 73.9066C21.6836 73.0915 23.4119 72.117 24.797 71.6819C25.6366 70.6707 25.4895 68.3172 26.0043 66.7054C26.6049 64.8422 28.1433 63.4939 28.5723 61.5817C28.9829 59.7676 28.3455 57.6777 28.56 55.8268C28.6397 55.1343 29.559 54.7237 29.608 54.025V54.0311ZM14.3904 11.2709C14.3659 10.4252 15.0523 10.4742 15.8613 10.3148C16.6764 10.3639 18.2331 10.2658 18.3924 10.6887C18.5579 11.1116 18.5395 11.7306 19.9675 11.5712C21.3955 11.4119 20.9849 12.3864 20.3843 12.9686C19.7898 13.5508 20.1391 13.9737 20.5068 14.3966C20.8746 14.8195 20.801 15.8797 20.4578 16.2536C20.1085 16.6274 20.5068 17.9512 20.6968 19.3302C20.8868 20.7092 20.3291 20.8134 20.3291 20.8134C20.3291 20.8134 19.7714 20.9727 18.705 21.1321C18.0737 21.224 17.3076 22.4804 16.7928 23.4794C16.3945 24.2577 16.2412 24.5703 15.9655 24.6806C15.6897 24.7909 15.2974 24.7051 14.4149 24.6806C14.4149 24.6806 14.3046 17.0503 14.2923 16.6274C14.28 16.2046 14.4149 12.1167 14.3965 11.2709H14.3904ZM20.9236 52.9341C21.2484 54.1292 21.2178 54.9198 20.9175 56.1149C20.562 57.5368 20.2127 58.9525 19.8572 60.3744C19.8204 61.4469 19.7224 62.5256 19.6427 63.5981C19.5262 65.2345 19.3117 65.2774 18.1718 66.448C17.136 67.5144 15.8061 68.4214 14.8071 69.3714C13.7039 69.7942 12.8459 69.831 11.7428 70.2539C12.1472 69.4755 12.5579 68.6911 12.9624 67.9066C12.8459 65.3203 12.7295 62.7401 12.613 60.1537C12.9624 59.6696 13.3117 59.1915 13.661 58.7074V50.8993C13.661 49.7165 13.4956 48.5337 13.4956 47.3508C12.2698 46.3396 12.8582 46.3518 13.8449 45.1874C13.8449 44.0474 14.1207 43.122 14.1207 41.982C14.0043 41.0198 13.8878 40.0576 13.7714 39.0954C13.943 38.6174 14.1207 38.1332 14.2923 37.6551C14.2923 36.2088 14.4578 35.0382 14.4578 33.5918C14.4578 32.2312 14.4946 31.7777 14.7458 31.8635C14.9971 31.9493 15.4506 32.5744 16.2903 33.3773C16.9277 33.9902 17.5589 34.5969 18.1963 35.2098C19.3669 36.3375 20.513 36.4417 20.0349 38.2864C19.5937 40.0147 20.8684 40.4927 20.4701 42.2088C20.1698 43.5203 19.7714 44.3171 19.8572 45.1322C19.9124 45.6164 20.1391 46.1128 20.6662 46.7195C21.1565 47.2834 21.3158 47.2466 21.0278 47.9392C20.5743 49.0117 20.1882 49.6368 20.1453 50.2742C20.084 51.1016 20.5375 51.4816 20.9297 52.9402L20.9236 52.9341Z" fill="#29ABE5"/>
<path d="M59.5163 61.8882C59.455 62.2498 58.6276 62.2498 58.6889 62.6113C58.7747 63.1139 58.8115 63.9045 59.3202 63.9658C60.791 64.1558 62.8135 63.5736 64.2722 63.8371C64.8483 63.9413 64.8789 64.928 65.4121 65.1793C65.8473 65.1732 66.5153 65.1854 67.0669 65.1793C67.4898 64.9586 67.3794 64.1803 67.7901 63.9413C68.2988 63.641 68.9913 63.5307 69.549 63.7329C69.8493 63.8432 69.4387 64.6277 69.7574 64.6645C72.3315 64.5664 74.6359 64.8483 77.0751 64.6645C77.5593 64.5848 77.0629 63.8861 77.4673 63.5981C77.9209 63.2671 79.0424 63.8432 79.1221 63.2855C79.5205 60.4111 78.9015 57.2058 79.1711 54.3253C79.2569 53.3999 80.1456 52.8544 80.3417 51.9473C80.4091 51.647 80.7707 51.6409 80.8014 51.3406C80.8994 50.3048 80.8811 49.0485 80.6236 48.0311C80.2743 47.6756 79.214 47.5469 78.8647 47.7062C78.4725 47.9943 78.8279 49.0239 78.5644 49.4284C78.4357 49.6307 77.9699 49.2262 77.8412 49.4284C77.7125 49.6307 77.878 49.9555 77.9393 50.219C77.976 50.3723 77.9699 50.5071 77.8412 50.5684C77.1609 50.9055 76.1681 50.1026 75.5674 50.5684C74.9791 51.0219 75.641 51.9106 75.1446 52.4622C74.3417 53.3569 72.6134 53.884 71.8105 54.7849C70.8544 55.8575 70.9402 56.9484 69.8432 57.8738C68.9852 58.597 67.5265 58.6706 66.4908 59.0934C65.2834 59.5837 64.7134 60.4847 63.4571 60.8401C63.0771 60.9443 62.6174 60.2886 62.7339 59.9086C63.6716 56.8687 64.8912 53.8105 65.9024 50.7951C66.5521 48.8585 66.8585 47.6388 67.5572 45.7205C68.2804 43.7348 69.2303 41.2833 70.4193 39.5366C70.6522 39.1934 71.4305 39.4202 71.5592 39.0218C71.8718 38.0351 71.2896 36.9197 71.5592 35.9207C71.7615 35.1791 72.5337 34.4743 73.1772 34.0575C73.6124 33.7756 74.3049 34.1679 74.4949 33.6898C74.9423 32.5683 74.5256 31.3854 74.8075 30.2087C74.9975 29.4181 75.5429 28.9339 75.8861 28.1985C76.3458 27.224 76.309 26.3721 76.8177 25.4222C77.2283 24.6438 78.0925 23.559 78.3438 22.7194C78.687 21.5611 78.405 20.9972 78.5154 19.796C78.546 19.4712 79.0179 19.2934 79.0302 18.9686C79.1895 15.0768 79.3979 11.1728 79.1711 7.28722C79.1527 6.96853 78.4418 6.98078 78.4479 6.66822C78.4725 5.47924 78.6195 4.43123 78.5521 3.3587C78.5399 3.15032 78.6134 2.97872 78.405 2.96646C75.1691 2.83163 71.9699 2.90517 68.7339 2.94194C66.0802 2.97259 63.4203 2.75808 60.7727 2.94194C60.3743 2.96646 60.0127 3.04 59.7369 3.32805C59.4734 3.60998 59.3447 4.21059 59.3569 4.59057C59.4243 6.31888 59.3202 8.2004 59.3569 10.278C59.3631 10.6642 60.123 10.4313 60.2517 10.7929C60.6133 11.8041 60.644 12.9257 60.5643 13.9982C60.5398 14.3414 60.123 14.8072 60.1291 15.1504C60.2946 16.3455 60.4478 17.1913 60.6685 18.3435C60.791 18.7909 61.1772 19.1341 61.2875 19.5815C61.4223 20.1147 60.932 21.1995 61.4836 21.2362C61.6675 21.2485 62.3049 21.3527 62.6297 21.2362C63.0526 21.083 62.4765 20.3108 62.6297 19.894C62.74 19.5937 63.3038 19.5876 63.3529 19.275C63.6287 17.5712 63.1506 15.5794 63.4203 13.8756C63.5 13.3547 63.8003 12.8092 64.2477 12.5334C64.6276 12.3005 65.3141 12.8889 65.5899 12.5334C65.9698 12.0431 65.596 11.4793 65.8289 10.9032C66.166 10.0819 66.7175 9.32196 67.3794 8.7336C67.9923 8.18814 68.5991 7.54463 69.4142 7.45882C71.2283 7.26883 73.404 7.44044 75.8616 7.33625C76.0945 7.32399 76.1558 7.67946 76.1742 7.91235C76.26 9.04617 76.4684 10.5845 76.1742 11.3261C75.7513 12.3986 74.783 13.5937 73.8085 14.703C73.1405 15.463 72.4663 16.1371 71.9454 16.8971C71.3264 17.8103 72.2518 19.0544 71.9331 20.1147C71.6083 21.1933 70.7257 22.3455 70.0393 23.2403C69.4755 23.9758 68.6481 24.3496 68.121 25.1096C67.4591 26.0595 67.0791 26.9972 66.6624 28.0759C66.3192 28.9707 66.0924 29.9207 65.9392 30.8645C65.8166 31.6122 66.1721 32.4579 65.835 33.1382C65.5837 33.6347 65.026 33.5427 64.6644 33.9656C64.1619 34.5478 63.8677 35.3017 63.6287 36.031C63.3467 36.9013 63.3222 37.41 62.881 38.2128C62.3845 39.1076 61.3917 39.9718 60.9381 40.8911C60.4478 41.8962 60.3927 43.1097 60.1475 44.2006C59.9085 45.2548 59.7124 46.2476 59.4918 47.3018C59.2282 48.5949 58.9463 49.9126 58.9769 51.2303C58.9831 51.6348 59.4121 51.9106 59.5959 52.266C59.7553 52.5663 60.1169 52.8728 60.0066 53.1976C59.8595 53.6389 59.0382 53.6695 58.9708 54.1292C58.9034 54.6011 59.026 55.0424 59.3692 55.3733C59.6695 55.6614 60.2885 55.5327 60.5091 55.8881C60.742 56.2742 60.6991 56.8258 60.5091 57.2303C60.3498 57.5674 59.7921 57.4877 59.7185 57.8493C59.4243 59.3386 59.7859 60.3989 59.5224 61.8882H59.5163Z" fill="#29ABE5"/>
<path d="M171.114 31.122C171.433 28.505 171.384 25.9126 171.108 23.2895C171.035 22.6031 170.33 21.8799 170.25 21.1996C169.981 18.9626 170.397 16.6521 169.993 14.4335C169.846 13.6061 169.215 12.9687 168.933 12.1965C168.571 11.1975 168.51 10.0759 167.946 9.15661C167.541 8.50697 166.653 8.07183 166.113 7.5325C164.281 5.7 164.692 6.47223 162.381 6.00644C161.903 5.90838 161.609 5.36292 161.143 5.22196C160.316 4.97681 159.004 4.60296 158.269 4.4191C157.637 4.25975 157.239 4.72553 156.608 4.56619C156.338 4.49877 153.991 3.82461 153.856 3.76332C153.096 3.40786 152.863 2.80111 152.134 2.37823C151.601 2.07179 149.627 1.04216 149.149 0.895073C148.53 0.698954 148.132 1.00539 147.525 0.772498C147.274 0.674439 146.771 0.214783 146.508 0.178011C145.723 0.055436 144.822 -0.0181089 143.995 0.00640609C143.351 0.0247923 142.775 0.0676935 143.125 0.582508C143.707 1.42827 144.215 1.88793 144.982 2.45177C145.582 2.89304 146.299 3.68365 146.949 4.16782C147.684 4.71941 148.322 4.98294 148.573 5.83484C148.922 7.01155 148.751 8.38439 148.64 9.75723C148.628 9.94722 148.236 10.3885 148.23 10.5785C148.193 12.2271 148.334 12.8829 148.401 14.5254C148.414 14.887 147.684 14.8809 147.654 15.2424C147.482 17.3814 147.617 19.3303 147.641 21.4815C147.666 23.504 147.586 25.7287 147.654 27.7451C147.666 28.0883 147.948 28.3212 147.948 28.6644C147.948 29.5837 148.058 30.2579 148.058 31.0423C148.058 31.9371 147.966 32.9422 148.058 33.978C148.089 34.3273 148.371 34.3948 148.432 34.7441C148.555 36.5888 148.34 38.501 148.512 40.3642C148.536 40.6338 149.204 40.9586 149.247 41.2222C149.48 42.5828 149.094 44.1517 149.474 45.4755C149.688 46.2171 150.252 47.0016 150.681 47.7861C151.196 48.736 151.699 49.4163 151.766 50.3479C151.907 52.2233 151.472 52.6584 151.404 54.4848C151.319 56.6605 150.663 58.9526 150.736 61.2141C150.761 62.0599 151.496 63.065 151.901 63.8127C152.128 64.2417 152.177 65.1059 152.471 65.682C152.753 66.2213 153.298 66.1478 153.133 66.5768C153.004 66.9016 152.667 67.2448 152.269 67.4164C151.515 67.7535 150.553 67.8025 150.491 68.2315C150.32 68.8934 150.798 69.255 151.092 69.9537C151.319 70.4869 151.503 71.3388 151.38 72.16C151.294 72.7239 150.939 73.2877 150.865 73.6432C150.681 74.5686 150.222 75.0283 149.75 75.5002C149.425 75.825 148.941 75.9415 149.137 76.5605C149.284 77.0385 149.707 76.7995 150.234 76.8118C151.123 76.8363 152.079 76.6279 152.9 76.4685C153.304 76.3889 153.17 76.0947 153.549 75.9292C154.077 75.7025 154.751 75.6841 155.272 75.9292C155.609 76.0886 155.523 76.1866 155.811 76.4256C156.019 76.5911 156.393 76.5789 156.614 76.4256C156.994 76.156 156.712 76.1499 157.129 75.9353C157.821 75.5799 158.667 75.6718 159.421 75.4757C160.616 75.1693 161.731 75.0283 162.773 74.3603C163.846 73.6738 164.961 72.4726 165.421 71.2898C166.12 69.4879 166.23 67.1529 166.346 65.5533C166.408 65.2591 166.849 64.9159 166.88 64.6156C167.051 62.8628 166.824 61.0793 167.088 59.3387C167.18 58.7075 167.707 58.3643 167.793 57.733C168.026 55.9128 167.842 54.2641 167.762 52.4316C167.652 49.8269 167.597 47.8106 167.67 45.2059C167.915 43.8391 167.78 42.1231 168.307 40.8606C168.51 40.3825 169.135 40.2232 169.405 39.7758C169.778 39.169 170.177 38.4213 170.226 37.7104C170.33 36.2211 169.889 34.7135 170.109 33.2364C170.244 32.36 170.986 31.9984 171.09 31.1159L171.114 31.122ZM164.312 32.8258C163.84 33.6838 163.656 34.3396 163.576 35.0689C163.355 37.0975 162.779 36.785 162.191 38.3172C162.032 38.7339 162.068 39.2548 162.05 40.2416C162.001 43.7779 161.946 47.308 161.897 50.8443C161.866 53.0997 161.437 54.1783 160.524 56.2621C159.991 57.2611 159.709 57.8985 159.709 59.0323C159.709 60.3745 159.433 60.9935 158.9 62.2131C158.575 62.9547 158.25 63.7024 157.925 64.444C157.539 65.3265 157.184 65.6452 156.933 65.5226C156.675 65.4062 156.522 64.8546 156.522 63.9966C156.546 59.6819 156.565 55.3673 156.589 51.0527C156.638 46.4684 156.687 41.8779 156.736 37.2937C156.681 36.3069 156.718 36.0924 156.068 35.357C156.007 33.8738 155.719 33.1997 155.253 31.7839C154.659 30.6685 154.726 29.8534 154.714 28.5786C154.677 25.3916 154.64 22.2047 154.604 19.0116C154.579 17.0566 155.02 17.7246 156.859 17.6265C158.011 17.5652 158.238 17.504 159.261 18.0555C160.322 18.6255 160.542 18.9994 161.192 20.029C161.529 20.3538 161.86 20.6725 162.191 20.9973C163.552 22.315 164.195 24.1659 164.753 25.9065C164.845 27.7941 165.249 31.1036 164.305 32.8135L164.312 32.8258Z" fill="#29ABE5"/>
<path d="M81.6778 72.4971C81.3223 70.7627 81.5736 69.3837 81.6656 68.0783C81.7085 67.7657 82.3397 68.0599 82.5052 67.7964C82.7565 67.4041 82.9894 66.8648 82.8239 66.4297C82.7258 66.1661 82.542 66.5277 82.3949 66.2948C82.1865 65.97 82.26 65.4429 82.4991 65.1365C82.8484 64.6952 83.5532 64.8056 83.7922 64.2907C84.1171 63.5921 83.5593 62.7095 83.7922 61.9741C83.8658 61.7412 84.4725 62.2131 84.5277 61.9741C84.8035 60.8464 84.4603 59.6452 84.6319 58.4991C84.6748 58.1988 84.9383 58.0639 84.9751 57.7636C85.1222 56.5072 85.1957 55.2141 84.9751 53.9699C84.8341 53.1977 84.2151 52.64 84.1048 51.8617C83.7126 49.0424 83.5961 45.9719 83.9577 43.1466C84.2396 40.9525 85.637 37.5633 86.4582 35.5102C86.9731 34.2293 87.2243 34.6276 87.684 33.3222C87.8249 32.9239 87.923 32.4581 87.7882 32.0597C87.6227 31.5633 87.0343 31.1772 87.114 30.6562C87.2182 30.0188 87.9965 30.0372 88.2049 29.4243C88.4868 28.597 87.9169 27.6225 88.2049 26.789C88.542 25.8145 89.7126 25.2507 89.9945 24.2639C90.2703 23.3201 89.9761 21.8063 90.2397 20.8564C90.7667 18.981 91.4041 17.7736 92.3112 16.0514C92.8444 15.0341 93.7759 14.176 94.1927 13.1035C94.5972 12.0739 94.5543 10.7072 94.732 9.8369C94.0763 9.01565 92.5625 10.1617 91.5696 9.80626C91.067 9.62239 91.067 8.80114 90.5706 8.60502C89.5042 8.53148 88.4868 8.50696 87.7269 9.07694C86.7095 9.84303 86.7034 10.7317 86.305 11.9452C85.7105 13.747 86.1641 15.7756 85.4225 17.5285C85.1283 18.221 83.9332 18.4171 83.3571 18.8952C83.0507 19.1526 82.9097 19.4161 82.5175 19.4161C82.1252 19.4161 81.7759 19.2813 81.6778 18.8952C81.4756 18.1107 81.7146 17.2772 81.6778 16.4743C81.6472 15.8369 81.304 15.1934 81.4694 14.5805C81.5552 14.2618 82.2846 14.3844 82.3091 14.0535C82.6216 10.4375 82.1926 6.83995 82.2478 3.38334C82.2662 2.16985 82.591 2.34758 83.7861 2.33532C85.7963 2.31694 88.9894 2.33532 91.3061 2.31694C95.3633 2.29855 99.4328 2.14533 103.484 2.25565C104.084 2.29855 104.869 2.52531 104.912 3.12593C104.998 4.34555 104.183 5.51614 103.619 6.60092C103.318 7.1709 102.65 7.54475 102.436 8.1515C102.062 9.18112 102.466 10.3946 102.074 11.4181C101.835 12.0432 100.603 12.1597 100.37 12.7848C100.04 13.6735 100.616 14.746 100.266 15.6286C100.095 16.0637 99.157 15.8185 99.0038 16.2598C98.4767 17.7614 98.7831 19.459 98.3725 20.9973C98.1457 21.8492 97.5022 22.4437 97.3858 23.314C97.0671 25.6797 97.588 28.0944 97.3858 30.4785C97.3429 30.9933 96.7974 31.3488 96.6442 31.8452C96.2949 33.0158 96.0804 34.2722 95.6759 35.4244C95.5042 35.9208 94.8607 36.1782 94.7259 36.6869C94.5298 37.4346 95.0262 38.2926 94.7259 39.0036C94.352 39.8984 93.0344 40.2661 92.8321 41.216C92.2622 43.8943 93.1631 46.7197 92.7463 49.4286C92.5625 50.642 91.4899 51.592 91.2693 52.7994C90.9874 54.3561 91.4715 56.1885 91.0854 57.7207C90.7116 59.1978 89.6391 60.4787 89.1059 61.9067C88.9771 63.304 87.304 64.591 88.2172 65.6452C89.3204 65.7923 91.1528 66.0129 92.4276 65.4368C93.016 65.1672 92.3357 63.9353 92.8505 63.543C94.4256 62.3418 96.2274 61.9067 97.9925 61.018C99.0038 60.5093 100.272 60.019 101.173 59.3326C101.633 58.9832 101.682 58.1559 102.227 57.9659C102.552 57.8494 102.62 58.6462 102.963 58.7013C104.14 58.9036 105.157 58.401 106.315 58.7013C106.775 58.8239 106.763 59.4429 106.885 59.9026C106.996 60.3193 107.179 60.7606 106.947 61.1222C106.806 61.3367 106.309 61.0977 106.211 61.3367C106.009 61.8209 106.089 62.4031 106.211 62.9179C106.309 63.3163 106.671 63.5614 106.708 63.972C106.885 66.1048 106.947 68.2683 106.708 70.395C106.659 70.8424 106.401 71.3082 105.954 71.3572C102.914 71.2162 100.107 71.4369 97.0671 71.4491C96.7545 71.4185 96.9322 70.8669 96.6442 70.7443C95.8597 70.4072 94.444 70.3643 93.6105 70.5543C92.6421 70.7749 92.5625 71.5717 91.588 71.7678C89.8352 72.1171 87.8066 71.7739 86.0354 72.0436C85.4102 72.1355 84.9322 72.6687 84.3193 72.8219C83.4674 73.0365 82.1252 73.2632 81.6839 72.5033L81.6778 72.4971Z" fill="#29ABE5"/>
<path d="M34.7684 77.443C33.4569 77.9026 31.9247 77.443 30.5335 77.4736C30.1045 77.4797 29.4058 77.8168 28.9952 77.7004C28.5478 77.5717 27.8368 76.6769 28.1188 76.303C29.2158 74.8382 31.3854 74.6544 32.3844 73.1222C32.9727 72.2213 32.4211 71.0078 32.6724 69.9659C32.7521 69.6472 33.3159 69.6717 33.4814 69.3898C33.6162 69.1569 33.6591 68.7892 33.4814 68.5808C33.083 68.115 32.8256 69.0956 32.6724 67.6921C32.5315 66.4419 32.5008 65.1732 32.6173 63.923C32.6908 63.1262 33.2669 63.2978 33.3772 62.8749C33.5795 62.0966 33.1566 61.5144 33.365 60.736C33.4569 60.3867 34.1065 60.4725 34.2904 60.1599C34.462 59.8596 34.4804 59.4122 34.2904 59.1242C33.8982 58.5358 32.8318 58.5419 32.7092 57.8494C32.4885 56.5623 32.605 55.1834 32.6295 53.9147C32.654 52.5603 32.5621 51.1936 32.6724 49.8146C32.6908 49.5572 33.273 49.5695 33.365 49.3304C33.5427 48.8646 33.4324 48.3253 33.365 47.8289C33.3159 47.4305 33.4385 46.6154 33.4079 46.217C33.3588 45.6042 33.0953 45.3774 33.3833 44.8319C33.5795 44.452 34.2291 44.6787 34.2904 44.2558C34.603 42.0127 33.9349 39.7083 34.174 37.4529C34.2169 37.073 34.8175 37.1342 34.9155 36.7604C35.081 36.1598 35.13 35.4734 34.8665 34.9156C34.7439 34.6521 34.1494 34.6521 34.1311 34.3579C33.8736 31.0607 34.321 27.9473 34.0636 24.65C34.0391 24.3436 33.2792 24.7726 33.2669 23.4365C33.2485 22.033 33.1198 20.7215 33.1382 19.6919C33.1505 18.9012 34.8604 18.8767 34.842 18.0861C34.8175 16.8788 35.0075 15.5182 34.7255 14.2802C34.6336 13.8818 34.1188 13.9492 33.9411 13.5754C33.7756 13.226 33.9288 12.8828 34.082 12.5274C34.2598 12.0983 34.75 11.8348 34.8665 11.3813C35.0749 10.56 35.0565 9.67137 34.8665 8.84399C34.8052 8.57432 34.3394 8.31079 34.2107 8.06564C33.9717 7.61211 34.082 7.21374 33.7572 6.81537C33.5366 6.53958 32.8808 6.71118 32.6111 6.47829C31.9186 5.88993 31.5202 5.22803 30.938 4.6887C30.3925 4.18002 29.6571 3.80003 29.2342 3.05846C28.9645 2.58041 29.2771 1.75304 29.7184 1.41595C30.0554 1.15855 30.5764 1.21983 30.9502 1.41595C31.2505 1.5753 31.2444 2.21882 31.5876 2.26785C33.0769 2.47623 34.5478 1.82045 36.0126 2.14527C36.65 2.28624 36.6867 3.09523 37.2812 3.36489C37.6796 3.54876 38.3967 3.19329 38.7582 3.43844C39.2914 3.80003 39.7388 4.56 40.1617 4.98901C40.7011 5.5406 41.1668 5.78575 41.4426 6.55797C41.792 7.53856 41.6388 8.54981 41.6204 9.56718C41.6081 10.4681 41.7552 11.3813 41.6694 12.2945C41.6449 12.6009 41.0504 12.4599 40.9646 12.7541C40.8175 13.2751 40.9217 13.8634 41.1975 14.3353C41.3936 14.6785 41.9329 14.5008 42.0616 14.8747C42.3619 15.7449 42.3987 16.8175 42.1781 17.7123C42.0923 18.0432 41.4488 17.8287 41.4304 18.1719C41.173 22.5111 41.1056 26.8809 41.5468 31.2078C41.6204 31.9432 42.7848 32.2006 42.8584 32.9361C43.2935 37.0239 42.8951 41.167 42.7297 45.2793C42.7052 45.8616 42.4171 46.597 42.1781 47.0322C41.9146 47.5225 42.08 48.0066 42.0862 48.546C42.0984 49.2385 42.0187 49.9923 42.1229 50.6971C42.1842 51.1016 43.0055 51.4878 42.9748 51.8922C42.8951 53.0138 43.0545 53.5409 43.128 54.6502C43.1587 55.1834 42.1903 55.5143 41.8839 55.9495C41.6633 56.262 41.5284 56.8688 41.7062 57.2059C41.8778 57.5246 42.1842 57.3652 42.2761 57.7145C42.411 58.211 42.4232 58.6277 42.1781 59.0751C42.0187 59.3632 41.4243 59.3264 41.3691 59.6512C41.2097 60.5644 41.7307 61.5021 41.602 62.4214C41.5652 62.6972 40.9523 62.6053 40.9094 62.8811C40.7072 64.2478 41.1423 65.6697 40.9094 67.0302C40.8236 67.5451 40.0269 67.7779 39.984 68.2989C39.9656 68.5931 40.652 68.3847 40.793 68.6421C41.0136 69.0527 40.462 69.8985 40.9094 70.0272C42.3865 70.4623 44.2128 70.3459 45.696 69.9598C46.5356 69.7391 46.8972 68.5563 47.7614 68.4766C48.8032 68.3786 49.5755 69.065 50.6112 69.255C51.9718 69.5001 53.4611 69.543 54.7972 69.1875C55.5878 68.973 56.0413 68.1395 56.8503 68.0292C60.3559 67.5573 63.6103 67.8454 67.1466 67.827C70.4929 67.8086 74.7707 67.6431 77.2529 67.9128C78.6686 67.9618 77.1303 72.969 77.6451 75.6166C77.7554 76.1927 78.2457 76.5175 78.546 77.0507C79.0179 77.9026 79.2018 78.3316 77.9761 78.3255C75.6716 78.3132 73.3427 78.491 70.8422 78.3868C70.3519 78.3684 70.3764 77.4184 69.9168 77.2346C69.4203 77.0323 68.8258 77.4736 68.3049 77.351C67.5204 77.161 66.6318 76.4072 65.835 76.3153C63.6961 76.0579 61.5449 76.5972 59.4121 76.303C58.9279 76.2356 58.8605 75.2979 58.3763 75.2611C53.3937 74.8995 48.6194 75.4205 43.6306 75.1508C42.5642 75.0895 42.4661 74.7218 41.7858 74.5195C40.8236 74.2438 39.1076 74.1334 38.2067 74.5563C36.5213 75.3469 36.5274 76.8362 34.7746 77.4552L34.7684 77.443Z" fill="#29ABE5"/>
<path d="M122.103 48.0004C122.078 45.9351 121.987 43.9064 121.919 41.8472C121.901 41.2956 121.478 40.2108 121.374 39.4509C121.202 38.2128 121.067 37.0177 121.037 35.7246C121 34.315 121.257 32.985 121.012 31.5938C120.859 30.7358 119.946 29.8778 119.756 29.0259C119.59 28.3149 120.179 27.555 119.982 26.8502C119.872 26.4518 119.4 26.5499 119.265 26.1637C118.941 25.2628 118.573 24.3987 118.377 23.4548C118.101 22.1678 118.015 20.7888 117.666 19.5263C117.267 18.0983 116.581 16.7316 116.109 15.322C115.723 14.1882 115.533 13.0176 115.263 11.8593C115.061 11.0074 115.417 9.83065 115.092 9.02166C114.467 7.45883 113.339 6.54565 112.689 4.99508C112.321 4.11254 112.616 3.03388 112.285 2.13296C112.119 1.6733 111.525 1.33622 111.034 1.35461C110.366 1.37912 109.711 1.64879 109.423 2.2494C109.024 3.07066 109.686 4.16157 109.306 4.99508C108.834 6.02471 107.596 6.00019 107.118 7.02982C106.781 7.75914 107.345 8.99102 107.081 9.74485C106.726 10.7561 106.064 11.5528 105.574 12.5089C105.237 13.1586 105.09 13.9798 104.734 14.6233C104.452 15.132 104.017 15.5059 103.919 16.0758C103.809 16.7255 104.281 17.2526 104.091 17.8838C103.95 18.3435 103.68 18.558 103.386 18.846C102.889 19.3302 102.485 20.2127 102.283 20.985C101.897 22.462 102.227 24.2761 101.86 25.7592C101.7 26.3844 100.683 26.5192 100.487 27.1321C100.193 28.0391 100.75 29.0749 100.487 29.9942C100.236 30.8706 99.2366 31.5386 98.9976 32.4151C98.6115 33.8185 98.6238 35.4978 98.8873 36.9319C98.9731 37.4038 99.8311 37.1464 99.9169 37.6184C99.9843 38.0045 99.0099 37.8145 98.8873 38.1883C98.5809 39.1322 99.0589 40.2169 98.7709 41.1669C98.5441 41.9269 98.0783 41.7369 97.9251 42.5152C97.8148 43.0852 98.0538 44.1332 98.0844 44.7154C98.1335 45.8309 97.8822 46.6521 97.8577 47.7737C97.8454 48.2456 98.2193 49.0117 97.968 49.41C97.5329 50.1087 96.3439 50.0842 95.9087 50.7829C95.5042 51.4325 96.0374 52.6276 95.682 53.3018C95.1917 54.2334 93.825 54.1782 93.7392 55.2262C93.6595 56.2497 93.7269 57.9229 94.7688 57.9535C95.6758 57.978 96.5094 57.4448 97.3306 57.0342C98.5686 56.4213 99.7637 55.8023 101.1 55.5143C102.332 55.2507 103.643 55.7043 104.918 55.6491C105.341 55.6307 105.745 55.6491 106.107 55.4346C106.708 55.0914 106.879 54.8401 107.063 54.1353C107.339 53.0812 105.488 52.7931 105.016 51.8125C104.569 50.8809 105.194 49.8145 105.071 48.791C105.028 48.4417 104.618 48.172 104.618 47.8166C104.618 47.4611 104.992 46.8605 105.304 47.0137C107.461 48.0617 110.262 49.3671 111.997 50.789C112.824 51.4693 113.124 51.9473 113.1 53.0444C113.088 53.7798 112.91 54.6501 112.61 55.3917C112.199 56.4029 111.77 57.8493 111.108 58.7319C110.14 60.025 109.19 61.0608 109.086 62.6481C108.981 64.2906 111.408 64.8851 112.162 66.3438C112.585 67.1527 112.174 68.7585 112.401 69.641C112.873 71.4674 113.651 72.5951 113.946 74.4582C114.197 76.0517 113.749 77.1548 113.97 78.7483C114.025 79.1283 114.938 78.9506 115.288 78.7974C115.778 78.5767 115.888 78.6503 116.054 78.1354C116.342 77.2284 115.968 76.2049 116.17 75.2733C116.25 74.8995 116.746 74.7217 116.857 74.3601C117.065 73.6615 116.728 72.8892 116.912 72.1844C117.084 71.5348 117.537 70.5665 117.819 69.9413C118.223 69.0281 118.634 68.4704 118.689 67.4898C118.757 66.3499 118.383 65.4367 118.689 64.5235C118.824 64.1129 119.633 63.7942 119.811 63.402C120.105 62.7646 120.111 62.023 120.27 61.3427C120.571 60.0434 120.963 59.3509 121.429 58.1067C121.551 57.7758 121.974 57.598 121.987 57.2487C122.14 54.2395 122.14 51.0158 122.103 48.0004ZM114.442 44.2619C114.418 44.7216 113.21 44.7522 112.873 44.4948C112.217 43.9984 111.807 43.4223 110.955 43.2139C110.599 43.1281 110.618 42.5642 110.281 42.4539C109.533 42.2026 108.589 42.1414 107.805 42.1414C107.296 42.1414 106.554 42.3191 106.046 42.2578C105.954 42.2456 106.046 42.0494 106.046 41.9452C106.033 40.934 106.009 39.9411 106.015 38.9483C106.015 38.0719 106.04 37.1955 106.107 36.3068C106.15 35.7307 106.677 35.2894 106.744 34.7133C106.861 33.7634 106.279 32.6234 106.542 31.7103C106.646 31.3425 107.59 31.7103 107.798 31.3977C107.866 31.2935 108.013 30.699 108.246 30.1965C108.387 29.89 108.687 29.6204 108.687 29.5039C108.687 29.3323 108.675 28.1311 108.804 27.0831C108.877 26.4763 108.969 25.9676 109.061 25.9615C109.153 25.9615 109.245 26.4579 109.564 26.8808C109.931 27.365 110.06 27.8369 110.379 28.3456C110.569 28.6459 110.777 29.0014 111.09 29.1239C111.494 29.2771 111.972 29.0626 112.371 29.222C112.671 29.3446 112.744 29.8103 113.008 30.0003C113.192 30.129 113.609 29.8839 113.645 30.1168C113.835 31.1587 113.67 32.5499 113.835 33.5918C113.878 33.8431 114.43 33.7266 114.442 33.9779C114.528 35.7981 114.571 37.6184 114.565 39.4386C114.565 41.0443 114.516 42.6562 114.436 44.2619H114.442Z" fill="#29ABE5"/>
<path d="M147.96 59.8044C147.923 59.0505 147.923 58.2293 147.433 57.6593C147.065 57.2303 145.968 57.6716 145.821 57.12C145.619 56.3723 146.704 55.7471 146.716 54.9749C146.422 52.885 146.152 51.0096 146.115 48.9504C146.072 46.5234 145.558 47.743 144.749 46.7931C144.264 46.217 144.111 45.7083 144.032 44.9606C143.805 42.7665 144.124 40.3334 143.793 38.1577C143.639 37.1832 143.186 36.221 142.542 35.4733C142.309 35.2036 141.88 35.602 141.721 35.2833C141.451 34.7501 142.279 34.3824 141.96 33.8675C141.231 32.6847 139.705 31.7776 138.546 31.0054C138.197 30.7725 137.59 31.2996 137.296 31.0054C137.002 30.7112 137.008 29.8042 137.296 29.5039C139.361 29.2036 140.422 28.2352 141.427 27.0708C142.794 25.4957 143.462 23.7367 144.148 21.7694C144.467 20.8624 144.062 19.8021 144.166 18.846C144.363 17.0809 145.288 15.4752 144.982 13.7224C144.534 11.1728 143.278 8.89294 141.831 6.74788C141.029 5.55891 139.784 4.49863 138.485 3.88576C137.4 3.37095 136.493 3.79996 135.347 3.46288C134.017 3.07064 132.951 2.32906 131.59 2.04714C130.536 1.83263 129.421 2.2739 128.373 2.02875C127.717 1.87553 127.607 1.14009 126.945 1.0359C126.485 0.962352 126.013 1.63038 125.547 1.67329C122.342 1.94295 119.707 1.32395 116.514 1.74683C116.036 1.80812 116.17 2.34132 116.569 2.61098C117.157 3.02161 118.058 2.81936 118.714 3.10128C119.897 3.6161 120.804 4.30252 121.68 5.24634C122.403 6.02469 122.704 6.89497 123.359 8.10846C123.629 8.60489 124.407 7.64881 124.971 7.56913C125.676 7.46494 126.172 7.44656 126.62 8.0104C127.024 8.51296 126.191 9.18099 125.719 9.61C124.763 10.4803 124.113 10.9461 123.261 11.5222C122.679 11.9205 121.656 12.276 121.227 13.0482C120.27 14.7704 121.404 16.7255 121.772 18.656C121.907 19.3608 122.06 20.0472 122.219 20.7459C122.74 23.0197 122.563 24.9135 122.881 27.2179C122.986 27.9656 123.513 28.6152 123.598 29.3629C123.696 30.2516 123.537 30.9074 123.672 31.796C123.727 32.176 124.034 32.5744 124.138 32.9421C124.585 34.5785 124.977 36.6316 125.033 38.3293C125.216 43.8697 124.885 49.2997 125.167 54.8401C125.192 55.3427 125.952 55.5449 126.056 56.0352C126.215 56.8013 125.707 57.6838 125.449 58.4254C124.389 61.453 123.151 63.7206 122.495 66.3008C122.213 67.3979 123.065 67.8453 124.064 68.4949C125.063 69.1384 126.221 69.9903 127.306 70.879C129.145 72.3867 130.401 75.1446 131.596 77.8535C132.215 77.1977 131.78 74.1395 132.123 72.307C132.197 71.9148 132.62 71.6328 132.663 71.2345C132.804 69.8126 132.841 68.3601 132.663 66.9444C132.595 66.4112 132.087 66.025 131.946 65.5102C131.835 65.1057 131.866 64.6645 131.946 64.26C132.044 63.7635 132.436 63.3345 132.479 62.832C132.614 61.3488 132.706 59.835 132.479 58.358C132.393 57.8003 131.541 57.4877 131.584 56.93C131.621 56.4642 132.626 56.501 132.657 56.0352C132.755 54.7053 132.295 53.4244 132.13 52.1006C131.756 49.1281 131.541 46.1373 131.235 43.1587C131.124 42.0862 130.695 41.0014 130.879 39.9411C131.437 38.4886 131.952 36.9993 132.491 35.8287C132.755 35.4855 133.104 36.1597 133.368 36.4968C134.238 37.6122 135.396 38.985 135.647 40.3763C135.954 42.0801 135.028 43.5877 135.231 45.3099C135.286 45.8125 136.064 45.7205 136.242 46.1924C137.094 48.454 137.793 50.789 138.209 53.167C138.687 55.8759 138.841 58.646 138.926 61.3978C138.963 62.5929 138.908 63.8248 138.571 64.9709C138.081 66.6134 137.063 67.9188 136.561 69.5C136.034 71.1548 135.862 71.6512 137.615 71.6512C138.307 71.6512 139.116 71.6757 139.656 71.9454C141.09 72.6625 141.684 74.3172 143.045 75.163C143.339 75.3469 143.725 75.5981 144.13 75.8249C146.06 76.9097 146.275 76.162 146.679 74.4704C147.212 72.2335 147.341 70.2171 147.69 68.0108C147.868 66.8892 147.831 65.7431 147.88 64.6154C147.948 63.0036 148.07 61.3978 147.991 59.786L147.96 59.8044ZM136.892 22.7807C136.775 23.5468 136.211 24.1535 135.887 24.8154C135.666 25.2628 135.752 26.3047 135.169 26.9114C134.324 27.794 133.171 28.6643 132.32 28.6643C130.561 28.6643 130.493 28.4436 130.371 27.1566C130.279 26.1576 130.499 23.8471 130.499 22.6397C130.499 21.1627 130.389 19.4895 130.383 17.9757C130.383 16.5539 130.481 15.2913 130.475 13.8817C130.475 12.7847 130.358 11.6509 130.358 10.609C130.358 9.31582 130.334 9.18099 131.823 9.51194C132.638 9.6958 133.153 10.1371 133.846 11.1544C134.219 11.706 135.102 12.4354 135.837 13.2443C136.91 14.4272 137.848 15.7449 137.848 16.6335C137.848 17.2587 137.603 20.0963 137.345 20.3476C136.683 20.9788 137.045 21.7939 136.898 22.7868L136.892 22.7807Z" fill="#29ABE5"/>
<path d="M171.776 2.15753H171.617V2.95426H171.838C171.997 2.95426 172.113 2.92362 172.199 2.85008C172.279 2.78266 172.322 2.67847 172.322 2.54977C172.322 2.42106 172.279 2.31688 172.193 2.25559C172.107 2.1943 171.966 2.16366 171.776 2.16366V2.15753ZM171.936 1.50788C172.414 1.50788 172.775 1.59368 173.027 1.75916C173.278 1.92464 173.4 2.16979 173.4 2.49461C173.4 2.70912 173.339 2.89298 173.223 3.05232C173.106 3.20554 172.941 3.32199 172.726 3.39553L173.462 4.85417H172.31L171.715 3.57327H171.611V4.85417H170.557V1.50788H171.936ZM174.363 3.24844C174.363 2.91749 174.301 2.60493 174.179 2.30462C174.056 2.00431 173.878 1.74077 173.652 1.50788C173.413 1.26886 173.143 1.09113 172.849 0.968553C172.555 0.845979 172.242 0.784691 171.905 0.784691C171.568 0.784691 171.249 0.845979 170.955 0.962425C170.661 1.07887 170.404 1.2566 170.177 1.4895C169.938 1.72852 169.76 1.99818 169.631 2.29849C169.503 2.5988 169.441 2.91136 169.441 3.24232C169.441 3.57327 169.503 3.8797 169.625 4.18001C169.754 4.48032 169.932 4.74386 170.164 4.97675C170.404 5.21577 170.667 5.3935 170.961 5.51608C171.255 5.63865 171.568 5.70607 171.899 5.70607C172.23 5.70607 172.536 5.64478 172.837 5.51608C173.137 5.3935 173.407 5.20964 173.652 4.97062C173.885 4.74386 174.062 4.48032 174.179 4.19227C174.301 3.89809 174.357 3.58552 174.357 3.24844H174.363ZM171.899 0.153431C172.322 0.153431 172.726 0.233105 173.1 0.386323C173.48 0.539542 173.811 0.766305 174.105 1.06048C174.393 1.34854 174.608 1.67949 174.767 2.05947C174.92 2.43945 175 2.83782 175 3.25457C175 3.67133 174.927 4.06969 174.773 4.44355C174.62 4.81127 174.399 5.14222 174.111 5.42415C173.805 5.71833 173.462 5.95122 173.082 6.11056C172.702 6.26991 172.303 6.34959 171.899 6.34959C171.494 6.34959 171.102 6.26991 170.728 6.11669C170.361 5.96347 170.024 5.73058 169.723 5.4364C169.429 5.14222 169.202 4.81127 169.043 4.43742C168.89 4.06357 168.81 3.67133 168.81 3.26683C168.81 2.86233 168.89 2.45784 169.049 2.07785C169.208 1.69787 169.435 1.36079 169.735 1.06048C170.017 0.772434 170.342 0.551799 170.716 0.398581C171.084 0.245362 171.482 0.171817 171.899 0.171817V0.153431Z" fill="#29ABE5"/>
</g>
<defs>
<clipPath id="clip0_27074_462">
<rect width="175" height="92.0046" fill="white"/>
</clipPath>
</defs>
</svg>
