<svg width="40" height="40" viewBox="0 0 40 40" fill="none" xmlns="http://www.w3.org/2000/svg">
<path d="M31.37 19.95C31.37 26.14 26.35 31.15 20.17 31.15C18.09 31.15 16.14 30.59 14.47 29.6L7.75 32.08L10.22 25.12C9.41 23.57 8.96 21.81 8.96 19.95C8.96 13.76 13.98 8.75 20.17 8.75C26.36 8.75 31.37 13.76 31.37 19.95Z" stroke="white" stroke-width="1.5" stroke-linejoin="round"/>
<path d="M15.06 21.61C15.8995 21.61 16.58 20.9295 16.58 20.09C16.58 19.2505 15.8995 18.57 15.06 18.57C14.2206 18.57 13.54 19.2505 13.54 20.09C13.54 20.9295 14.2206 21.61 15.06 21.61Z" fill="white"/>
<path d="M20.06 21.61C20.8995 21.61 21.58 20.9295 21.58 20.09C21.58 19.2505 20.8995 18.57 20.06 18.57C19.2206 18.57 18.54 19.2505 18.54 20.09C18.54 20.9295 19.2206 21.61 20.06 21.61Z" fill="white"/>
<path d="M25.06 21.61C25.8995 21.61 26.58 20.9295 26.58 20.09C26.58 19.2505 25.8995 18.57 25.06 18.57C24.2206 18.57 23.54 19.2505 23.54 20.09C23.54 20.9295 24.2206 21.61 25.06 21.61Z" fill="white"/>
</svg>
