<svg width="41" height="41" viewBox="0 0 41 41" fill="none" xmlns="http://www.w3.org/2000/svg">
<path d="M31.4852 20.45C31.4852 26.64 26.4652 31.65 20.2852 31.65C18.2052 31.65 16.2552 31.09 14.5852 30.1L7.86523 32.58L10.3352 25.62C9.52523 24.07 9.07523 22.31 9.07523 20.45C9.07523 14.26 14.0952 9.25 20.2852 9.25C26.4752 9.25 31.4852 14.26 31.4852 20.45Z" stroke="#404041" stroke-width="1.5" stroke-linejoin="round"/>
<path d="M15.1753 22.11C16.0148 22.11 16.6953 21.4295 16.6953 20.59C16.6953 19.7505 16.0148 19.07 15.1753 19.07C14.3359 19.07 13.6553 19.7505 13.6553 20.59C13.6553 21.4295 14.3359 22.11 15.1753 22.11Z" fill="#404041"/>
<path d="M20.1753 22.11C21.0148 22.11 21.6953 21.4295 21.6953 20.59C21.6953 19.7505 21.0148 19.07 20.1753 19.07C19.3359 19.07 18.6553 19.7505 18.6553 20.59C18.6553 21.4295 19.3359 22.11 20.1753 22.11Z" fill="#404041"/>
<path d="M25.1753 22.11C26.0148 22.11 26.6953 21.4295 26.6953 20.59C26.6953 19.7505 26.0148 19.07 25.1753 19.07C24.3359 19.07 23.6553 19.7505 23.6553 20.59C23.6553 21.4295 24.3359 22.11 25.1753 22.11Z" fill="#404041"/>
</svg>
