<svg width="40" height="40" viewBox="0 0 40 40" fill="none" xmlns="http://www.w3.org/2000/svg">
<path d="M27.44 29.7V30.45C27.6837 30.45 27.9122 30.3316 28.0527 30.1325C28.1932 29.9335 28.2283 29.6785 28.1467 29.4489L27.44 29.7ZM6.75 29.7L6.04328 29.4489C5.9617 29.6785 5.99676 29.9335 6.13729 30.1325C6.27783 30.3316 6.50632 30.45 6.75 30.45V29.7ZM17.09 18.41V19.16C19.8956 19.16 22.17 16.8856 22.17 14.08H21.42H20.67C20.67 16.0572 19.0672 17.66 17.09 17.66V18.41ZM21.42 14.08H22.17C22.17 11.2744 19.8956 9 17.09 9V9.75V10.5C19.0672 10.5 20.67 12.1028 20.67 14.08H21.42ZM17.09 9.75V9C14.2844 9 12.01 11.2744 12.01 14.08H12.76H13.51C13.51 12.1028 15.1128 10.5 17.09 10.5V9.75ZM12.76 14.08H12.01C12.01 16.8856 14.2844 19.16 17.09 19.16V18.41V17.66C15.1128 17.66 13.51 16.0572 13.51 14.08H12.76ZM27.44 29.7V28.95H6.75V29.7V30.45H27.44V29.7ZM6.75 29.7L7.45672 29.9511C8.86357 25.9914 12.6466 23.16 17.09 23.16V22.41V21.66C11.9934 21.66 7.65643 24.9086 6.04328 29.4489L6.75 29.7ZM17.09 22.41V23.16C21.5342 23.16 25.3267 25.9922 26.7333 29.9511L27.44 29.7L28.1467 29.4489C26.5333 24.9078 22.1858 21.66 17.09 21.66V22.41ZM29.68 14.08H28.93V18.73H29.68H30.43V14.08H29.68ZM29.68 18.73V17.98H25.03V18.73V19.48H29.68V18.73ZM29.6799 23.37L30.4299 23.37L30.43 18.73L29.68 18.73L28.93 18.73L28.9299 23.37L29.6799 23.37ZM29.68 18.73V19.48H34.3299V18.73V17.98H29.68V18.73Z" fill="white"/>
</svg>
