<svg width="183" height="28" viewBox="0 0 183 28" fill="none" xmlns="http://www.w3.org/2000/svg">
<g clip-path="url(#clip0_27074_507)">
<path d="M19.8487 10.2216L17.1688 6.41945H2.80422C2.80422 6.41945 0 7.1479 0 9.50499V18.652C0 18.652 0.213204 20.5028 1.85073 21.1779C3.74587 19.4693 4.99252 18.3559 4.99252 18.3559V10.4052H14.868V17.7548H7.46214L3.87024 21.5155H16.6654C16.6654 21.5155 19.8487 20.8433 19.8487 18.8208V10.2216Z" fill="white"/>
<path d="M19.5289 6.41945L29.1231 21.8501H32.8275L42.5342 6.41945H36.9228L31.0301 15.6228L25.3624 6.41945H19.5289Z" fill="white"/>
<path d="M27.3819 6.13814L31.3114 0.526733L35.4067 6.13814H27.3819Z" fill="#F9A51A"/>
<path d="M44.9475 6.41945L42.5342 10.1801V21.6813H58.6429V17.586H47.4556V15.9011H54.823V12.1996H47.4764V10.4644H58.6429V6.41945H44.9475Z" fill="white"/>
<path d="M60.7157 6.41945V21.6813H65.9896V10.2334H74.0706V12.9814H68.1779V16.0107L74.6865 21.8471H81.4764L75.3616 15.8981C75.3616 15.8981 78.9535 16.1795 78.9535 13.4285V9.05193C78.9535 9.05193 78.4916 6.41353 75.8117 6.41353H60.7187L60.7157 6.41945Z" fill="white"/>
<path d="M80.0166 6.41945L86.6378 21.8501H90.0076L93.5402 14.1333L96.9071 21.8501H100.499L107.12 6.41945H102.237L98.9829 14.1333L95.4502 6.41945H92.0834L88.604 14.1333L85.403 6.41945H80.0166Z" fill="white"/>
<path d="M103.081 21.8501L113.404 6.41945H117.277L127.209 21.8501H121.26L115.145 12.0309L108.915 21.8501H103.081Z" fill="white"/>
<path d="M111.133 21.8501L115.059 27.4615L119.157 21.8501H111.133Z" fill="#F9A51A"/>
<path d="M123.211 6.41945H142.992L140.256 10.5147H135.121V21.8501H129.649V10.4318H123.211V6.41945Z" fill="white"/>
<path d="M142.192 11.4416L145.476 6.41945H158.396C158.396 6.41945 160.877 7.1479 160.877 9.12596V12.2411H155.87V10.263H147.2V17.7548H155.828V15.6079H160.877V18.3529C160.877 18.3529 161.173 21.8501 156.962 21.8501H145.515C145.515 21.8501 142.189 21.7731 142.189 18.3529V11.4416H142.192Z" fill="white"/>
<path d="M168.41 11.9864V6.41945H163.234V21.8501H168.369V15.8596H177.753V21.8501H182.846V6.41945H177.67V11.8206" fill="white"/>
</g>
<defs>
<clipPath id="clip0_27074_507">
<rect width="183" height="26.9466" fill="white" transform="translate(0 0.526733)"/>
</clipPath>
</defs>
</svg>
