<svg width="184" height="28" viewBox="0 0 184 28" fill="none" xmlns="http://www.w3.org/2000/svg">
<g clip-path="url(#clip0_27074_518)">
<mask id="mask0_27074_518" style="mask-type:luminance" maskUnits="userSpaceOnUse" x="0" y="0" width="183" height="28">
<path d="M182.961 0.499969H0.115234V27.4347H182.961V0.499969Z" fill="white"/>
</mask>
<g mask="url(#mask0_27074_518)">
<path d="M19.9639 10.1948L17.2841 6.3927H2.91946C2.91946 6.3927 0.115234 7.12115 0.115234 9.47823V18.6253C0.115234 18.6253 0.328438 20.476 1.96596 21.1511C3.86111 19.4426 5.10776 18.3292 5.10776 18.3292V10.3784H14.9832V17.728H7.57737L3.98548 21.4887H16.7807C16.7807 21.4887 19.9639 20.8165 19.9639 18.7941V10.1948Z" fill="#404041"/>
<path d="M19.6445 6.3927L29.2387 21.8233H32.9431L42.6498 6.3927H37.0384L31.1457 15.596L25.478 6.3927H19.6445Z" fill="#404041"/>
<path d="M27.4971 6.11138L31.4265 0.499969L35.5218 6.11138H27.4971Z" fill="#F9A51A"/>
<path d="M45.0628 6.3927L42.6494 10.1534V21.6545H58.7582V17.5593H47.5709V15.8743H54.9382V12.1729H47.5916V10.4377H58.7582V6.3927H45.0628Z" fill="#404041"/>
<path d="M60.8311 6.3927V21.6545H66.1049V10.2067H74.1859V12.9546H68.2932V15.9839L74.8018 21.8204H81.5918L75.477 15.8714C75.477 15.8714 79.0689 16.1527 79.0689 13.4018V9.02518C79.0689 9.02518 78.6069 6.38678 75.9271 6.38678H60.834L60.8311 6.3927Z" fill="#404041"/>
<path d="M80.1318 6.3927L86.753 21.8233H90.1228L93.6555 14.1065L97.0223 21.8233H100.614L107.235 6.3927H102.352L99.0981 14.1065L95.5654 6.3927H92.1986L88.7192 14.1065L85.5182 6.3927H80.1318Z" fill="#404041"/>
<path d="M103.196 21.8233L113.519 6.3927H117.392L127.324 21.8233H121.375L115.26 12.0041L109.03 21.8233H103.196Z" fill="#404041"/>
<path d="M111.248 21.8233L115.175 27.4347L119.273 21.8233H111.248Z" fill="#F9A51A"/>
<path d="M123.326 6.3927H143.107L140.371 10.488H135.236V21.8233H129.764V10.4051H123.326V6.3927Z" fill="#404041"/>
<path d="M142.308 11.4148L145.592 6.3927H158.511C158.511 6.3927 160.993 7.12115 160.993 9.09921V12.2144H155.985V10.2363H147.315V17.728H155.944V15.5812H160.993V18.3262C160.993 18.3262 161.289 21.8233 157.078 21.8233H145.63C145.63 21.8233 142.305 21.7463 142.305 18.3262V11.4148H142.308Z" fill="#404041"/>
<path d="M168.526 11.9597V6.3927H163.35V21.8233H168.484V15.8329H177.868V21.8233H182.961V6.3927H177.785V11.7939" fill="#404041"/>
</g>
</g>
<defs>
<clipPath id="clip0_27074_518">
<rect width="183" height="26.9466" fill="white" transform="translate(0.115234 0.499969)"/>
</clipPath>
</defs>
</svg>
