<svg width="41" height="41" viewBox="0 0 41 41" fill="none" xmlns="http://www.w3.org/2000/svg">
<path d="M26.1357 15.83C27.9527 15.83 29.4257 14.357 29.4257 12.54C29.4257 10.723 27.9527 9.25 26.1357 9.25C24.3187 9.25 22.8457 10.723 22.8457 12.54C22.8457 14.357 24.3187 15.83 26.1357 15.83Z" stroke="#404041" stroke-width="1.5" stroke-miterlimit="10"/>
<path d="M19.7451 16.94L23.4251 14.41" stroke="#404041" stroke-width="1.5" stroke-miterlimit="10" stroke-linecap="round"/>
<path d="M26.1357 31.93C27.9527 31.93 29.4257 30.457 29.4257 28.64C29.4257 26.823 27.9527 25.35 26.1357 25.35C24.3187 25.35 22.8457 26.823 22.8457 28.64C22.8457 30.457 24.3187 31.93 26.1357 31.93Z" stroke="#404041" stroke-width="1.5" stroke-miterlimit="10"/>
<path d="M14.1552 23.67C15.9722 23.67 17.4452 22.197 17.4452 20.38C17.4452 18.563 15.9722 17.09 14.1552 17.09C12.3382 17.09 10.8652 18.563 10.8652 20.38C10.8652 22.197 12.3382 23.67 14.1552 23.67Z" stroke="#404041" stroke-width="1.5" stroke-miterlimit="10"/>
<path d="M20.5452 24.78L16.8652 22.25" stroke="#404041" stroke-width="1.5" stroke-miterlimit="10" stroke-linecap="round"/>
</svg>
