<svg width="40" height="40" viewBox="0 0 40 40" fill="none" xmlns="http://www.w3.org/2000/svg">
<path d="M19.63 16.44L23.31 13.91M20.43 24.28L16.75 21.75M26.02 15.33C27.837 15.33 29.31 13.857 29.31 12.04C29.31 10.223 27.837 8.75 26.02 8.75C24.203 8.75 22.73 10.223 22.73 12.04C22.73 13.857 24.203 15.33 26.02 15.33ZM26.02 31.43C27.837 31.43 29.31 29.957 29.31 28.14C29.31 26.323 27.837 24.85 26.02 24.85C24.203 24.85 22.73 26.323 22.73 28.14C22.73 29.957 24.203 31.43 26.02 31.43ZM14.04 23.17C15.857 23.17 17.33 21.697 17.33 19.88C17.33 18.063 15.857 16.59 14.04 16.59C12.223 16.59 10.75 18.063 10.75 19.88C10.75 21.697 12.223 23.17 14.04 23.17Z" stroke="white" stroke-width="1.5" stroke-miterlimit="10" stroke-linecap="round"/>
</svg>
